# xmcd
#
# Track frame offsets:
#	150
#	12140
#	25803
#	38441
#	53490
#	68619
#	81089
#	95444
#	108910
#	122043
#	135074
#	147166
#	162344
#	175034
#	189523
#	201717
#	215703
#	228211
#	241184
#	254265
#	270186
#	282925
#	296425
#	310016
#	320752
#
# Disc length: 4443 seconds
#
# Revision: 2
# Processed by: cddbd v1.5.2PL0 Copyright (c) Steve Scherf et al.
# Submitted via: audiograbber 1.83.01
#
DISCID=4d115919
DTITLE=Rudi Schuricke - Capri Fischer - CD 2
DYEAR=1900
DGENRE=Oldies
TTITLE0=Eine Nacht voller Seeligkeit
TTITLE1=Der kleine Postillion
TTITLE2=Laß die Frau die dich liebt niemals weinen
TTITLE3=Guter Mond 
TTITLE4=Ich schreibe meiner Mutter einen Brief
TTITLE5=Lillie und Luise
TTITLE6=Ein Leben lang
TTITLE7=Das Märchen unserer Liebe
TTITLE8=Ich wünsche mir, daß du mir sagst "Ich liebe dich"
TTITLE9=Küß mich, bitte küß mich
TTITLE10=Heute nacht
TTITLE11=Königin der Liebe
TTITLE12=Abends in der kleinen Bar
TTITLE13=Wir zwei sind die besten Kameraden
TTITLE14=Sing schon am Morgen
TTITLE15=Einmal wirst du wieder bei mir sein
TTITLE16=Ich werde jede Nacht von Ihnen träumen
TTITLE17=Man kann sein Herz nur einmal verschenken
TTITLE18=Wenn ich wüßt' wen ich geküßt
TTITLE19=Mandolino, Mandolino
TTITLE20=Senor und Senorina
TTITLE21=Rosemarie
TTITLE22=Immer und ewig
TTITLE23=Ganz leis' erklingt Musik
TTITLE24=Good bye Johnny
EXTD=
EXTT0=
EXTT1=
EXTT2=
EXTT3=
EXTT4=
EXTT5=
EXTT6=
EXTT7=
EXTT8=
EXTT9=
EXTT10=
EXTT11=
EXTT12=
EXTT13=
EXTT14=
EXTT15=
EXTT16=
EXTT17=
EXTT18=
EXTT19=
EXTT20=
EXTT21=
EXTT22=
EXTT23=
EXTT24=
PLAYORDER=
